<svg xmlns="http://www.w3.org/2000/svg" width="1600" height="900" viewBox="0 0 1600 900" role="img" aria-label="AssetDesk tickets">
  <defs>
    <linearGradient id="bg" x1="0" y1="0" x2="1" y2="1">
      <stop offset="0" stop-color="#f4f6f9" />
      <stop offset="1" stop-color="#eef1f7" />
    </linearGradient>
    <linearGradient id="accent" x1="0" y1="0" x2="1" y2="0">
      <stop offset="0" stop-color="#1d4ed8" />
      <stop offset="1" stop-color="#1e40af" />
    </linearGradient>
  </defs>

  <rect width="1600" height="900" fill="url(#bg)" />
  <rect x="40" y="40" width="1520" height="820" rx="18" fill="#ffffff" stroke="#d9dee7" />

  <rect x="70" y="70" width="260" height="760" rx="14" fill="#ffffff" stroke="#d9dee7" />
  <rect x="94" y="100" width="40" height="40" rx="8" fill="url(#accent)" />
  <text x="150" y="126" fill="#1f2937" font-family="IBM Plex Sans, sans-serif" font-size="20">AssetDesk</text>

  <text x="370" y="120" fill="#6b7280" font-family="IBM Plex Mono, monospace" font-size="11" letter-spacing="3">WORKSPACE / BUENOS AIRES HQ</text>
  <text x="370" y="158" fill="#1f2937" font-family="IBM Plex Sans, sans-serif" font-size="26">Tickets</text>
  <text x="370" y="182" fill="#6b7280" font-family="IBM Plex Sans, sans-serif" font-size="13">Track requests from creation to resolution.</text>

  <rect x="1390" y="124" width="130" height="40" rx="10" fill="url(#accent)" />
  <text x="1412" y="149" fill="#ffffff" font-family="IBM Plex Sans, sans-serif" font-size="13" font-weight="600">New ticket</text>

  <rect x="370" y="230" width="1150" height="56" rx="10" fill="#ffffff" stroke="#d9dee7" />
  <rect x="390" y="244" width="320" height="26" rx="8" fill="#f7f8fb" stroke="#d9dee7" />
  <rect x="720" y="244" width="160" height="26" rx="8" fill="#f7f8fb" stroke="#d9dee7" />
  <rect x="890" y="244" width="160" height="26" rx="8" fill="#f7f8fb" stroke="#d9dee7" />

  <rect x="370" y="300" width="1150" height="46" rx="8" fill="#f7f8fb" stroke="#d9dee7" />
  <rect x="370" y="356" width="1150" height="46" rx="8" fill="#f7f8fb" stroke="#d9dee7" />
  <rect x="370" y="412" width="1150" height="46" rx="8" fill="#f7f8fb" stroke="#d9dee7" />
  <rect x="370" y="468" width="1150" height="46" rx="8" fill="#f7f8fb" stroke="#d9dee7" />
  <rect x="370" y="524" width="1150" height="46" rx="8" fill="#f7f8fb" stroke="#d9dee7" />

  <rect x="370" y="620" width="1150" height="56" rx="10" fill="#ffffff" stroke="#d9dee7" />
  <rect x="390" y="636" width="120" height="22" rx="10" fill="#edf1fe" stroke="#d6defa" />
  <rect x="520" y="636" width="120" height="22" rx="10" fill="#edf1fe" stroke="#d6defa" />
</svg>
