<svg xmlns="http://www.w3.org/2000/svg" width="48" height="48" viewBox="0 0 48 48" fill="none">
  <defs>
    <linearGradient id="logo-grad" x1="8" y1="4" x2="40" y2="44" gradientUnits="userSpaceOnUse">
      <stop offset="0%" stop-color="#a78bfa"/>
      <stop offset="100%" stop-color="#7c3aed"/>
    </linearGradient>
  </defs>
  <!-- Ticket body -->
  <path d="M14 4h20a4 4 0 0 1 4 4v4a4 4 0 0 0 0 8v4a4 4 0 0 1-4 4h-6l-4 5-4-5h-6a4 4 0 0 1-4-4v-4a4 4 0 0 0 0-8V8a4 4 0 0 1 4-4z" fill="url(#logo-grad)"/>
  <!-- Checkmark -->
  <path d="M19 16l4 4 7-7" stroke="#fff" stroke-width="3" stroke-linecap="round" stroke-linejoin="round" fill="none"/>
</svg>